<?xml version="1.0" standalone="no"?><!DOCTYPE svg PUBLIC "-//W3C//DTD SVG 1.1//EN" "http://www.w3.org/Graphics/SVG/1.1/DTD/svg11.dtd"><svg t="1506878120289" class="icon" style="" viewBox="0 0 1024 1024" version="1.1" xmlns="http://www.w3.org/2000/svg" p-id="8448" xmlns:xlink="http://www.w3.org/1999/xlink" width="64" height="64"><defs><style type="text/css"></style></defs><path d="M860.8 435.2c0-224-192-403.2-432-403.2C192 32 0 214.4 0 435.2c0 73.6 22.4 144 57.6 201.6l-41.6 140.8c-9.6 35.2 9.6 51.2 41.6 41.6l134.4-44.8c67.2 41.6 147.2 64 233.6 64C668.8 841.6 860.8 659.2 860.8 435.2zM646.4 380.8c28.8 0 54.4 25.6 54.4 54.4s-25.6 54.4-54.4 54.4-54.4-25.6-54.4-54.4S617.6 380.8 646.4 380.8zM214.4 489.6c-28.8 0-54.4-25.6-54.4-54.4s25.6-54.4 54.4-54.4c28.8 0 54.4 25.6 54.4 54.4S246.4 489.6 214.4 489.6zM377.6 435.2c0-28.8 25.6-54.4 54.4-54.4s54.4 25.6 54.4 54.4-25.6 54.4-54.4 54.4S377.6 467.2 377.6 435.2z" fill="#3e5aff" p-id="8449"></path><path d="M966.4 800c35.2-60.8 57.6-128 57.6-201.6 0-112-48-211.2-124.8-284.8 12.8 38.4 19.2 80 19.2 124.8 0 12.8 0 22.4 0 35.2 19.2 38.4 28.8 83.2 28.8 128 0 57.6-16 112-44.8 160l-19.2 28.8 9.6 35.2 16 54.4-51.2-16-35.2-12.8-32 19.2c-57.6 35.2-124.8 54.4-192 54.4-51.2 0-99.2-9.6-140.8-28.8-6.4 0-12.8 0-19.2 0-54.4 0-108.8-9.6-156.8-25.6 80 80 192 131.2 320 131.2 86.4 0 166.4-25.6 233.6-64l144 48c28.8 9.6 44.8-6.4 35.2-35.2L966.4 800z" fill="#3e5aff" p-id="8450"></path></svg>