<?xml version="1.0" standalone="no"?><!DOCTYPE svg PUBLIC "-//W3C//DTD SVG 1.1//EN" "http://www.w3.org/Graphics/SVG/1.1/DTD/svg11.dtd"><svg t="1506861696230" class="icon" style="" viewBox="0 0 1024 1024" version="1.1" xmlns="http://www.w3.org/2000/svg" p-id="7755" xmlns:xlink="http://www.w3.org/1999/xlink" width="64" height="64"><defs><style type="text/css"></style></defs><path d="M608.09216 61.92128c0.64 0 1.26976 0 1.69984 0.10752 1.05984 5.72928 0.84992 20.26496-8.27904 44.76928l-79.03232 214.50752c-20.48 55.48032-67.89632 95.68768-112.768 95.68768-8.38144 0-16.54784-1.3824-24.192-4.2496-50.176-18.4576-75.84768-74.26048-57.39008-124.43648 22.912-62.06464 110.11584-149.89824 186.60352-187.8784l51.24096-25.46176c23.86432-11.77088 37.34528-13.04576 42.11712-13.04576M702.08 329.14944c11.35104 0 22.49216 2.01728 33.09568 5.9392 62.06464 22.91712 149.90336 110.11584 187.87328 186.5984l25.472 51.24096c11.65824 23.4496 13.35808 37.86752 13.05088 43.70944-1.28 0.20992-3.18976 0.43008-5.9392 0.43008-7.11168 0-19.52256-1.48992-38.93248-8.61184l-214.50752-79.03232c-67.69152-24.92928-109.57824-87.62368-91.43808-136.95488 13.99296-37.85728 50.69312-63.31904 91.32544-63.31904M61.00992 413.37856c7.10656 0 19.51744 1.48992 38.93248 8.59648l214.50752 79.03744c34.47808 12.72832 63.86688 35.95776 80.73216 63.75936 15.06304 24.92416 18.88256 50.9184 10.71104 73.1904-13.99808 37.87776-50.60096 63.33952-91.22816 63.33952-11.35104 0-22.49216-2.0224-33.1008-5.9392-62.05952-22.8096-149.89824-110.12096-187.87328-186.59328L68.22912 457.5232c-11.66848-23.44448-13.36832-37.87264-13.05088-43.70944 1.26464-0.22016 3.1744-0.4352 5.83168-0.4352M606.91968 613.3504c8.38144 0 16.54784 1.3824 24.192 4.24448 50.18112 18.45248 75.84768 74.26048 57.39008 124.43648-22.8096 62.06464-110.11584 149.89824-186.5984 187.99104L450.6624 955.4944c-23.6544 11.77088-37.23776 13.04576-42.0096 13.04576-0.64 0-1.27488 0-1.69984-0.10752-1.06496-5.72928-0.84992-20.25984 8.27904-44.76928l79.03232-214.50752c20.25984-55.49568 67.78368-95.80544 112.65536-95.80544" fill="" p-id="7756"></path><path d="M608.09216 16.62464c-16.8704 0-37.86752 5.72928-62.16704 17.71008l-51.24096 25.46176C406.73792 103.50592 312.74496 199.30624 285.696 272.60416c-27.05408 73.51808 10.81856 155.62752 84.23424 182.6816a114.39104 114.39104 0 0 0 39.7824 6.99904c62.90432 0 127.40608-49.54112 155.30496-125.3888l79.03232-214.5024c24.61184-66.62144 8.27392-105.76896-35.95776-105.76896z" fill="#F48134" p-id="7757"></path><path d="M702.08 283.8528c-57.92256 0-112.66048 35.64032-133.77536 93.03552-27.04896 73.40544 26.20416 161.2544 118.28736 195.09248l214.50752 79.03232c21.11488 7.7568 39.36256 11.45856 54.63552 11.45856 51.23584 0 67.1488-41.79968 33.52064-109.58848l-25.46176-51.22048c-43.70432-87.94624-139.50464-181.9392-212.80256-208.98816a139.14112 139.14112 0 0 0-48.91136-8.82176z" fill="#61F24C" p-id="7758"></path><path d="M61.00992 367.97952c-51.34336 0-67.15392 41.79456-33.52576 109.58848l25.46176 51.23072c43.70944 87.94624 139.50464 181.9392 212.80768 208.98816a140.49792 140.49792 0 0 0 48.79872 8.68864c57.92256 0 112.66048-35.64544 133.77024-93.04064 27.05408-73.41056-26.19904-161.24416-118.28224-195.08736L115.64032 379.43808c-21.10976-7.74656-39.45984-11.45856-54.6304-11.45856z" fill="#F2515D" p-id="7759"></path><path d="M606.91968 568.05376c-62.90944 0-127.4112 49.54112-155.30496 125.38368L372.5824 907.95008c-24.50432 66.62144-8.1664 105.8816 36.0704 105.8816 16.86528 0 37.86752-5.72928 62.16192-17.72032l51.24096-25.46176c87.94624-43.70944 181.93408-139.50976 208.98304-212.80768 27.04896-73.40032-10.9312-155.52-84.34176-182.56896a112.0512 112.0512 0 0 0-39.77728-7.2192z" fill="#4678F2" p-id="7760"></path></svg>