<?xml version="1.0" standalone="no"?><!DOCTYPE svg PUBLIC "-//W3C//DTD SVG 1.1//EN" "http://www.w3.org/Graphics/SVG/1.1/DTD/svg11.dtd"><svg t="1506878707769" class="icon" style="" viewBox="0 0 1024 1024" version="1.1" xmlns="http://www.w3.org/2000/svg" p-id="12586" xmlns:xlink="http://www.w3.org/1999/xlink" width="64" height="64"><defs><style type="text/css"></style></defs><path d="M291.351 657.119c0 0 0 0 0 0 0 22.533 18.267 40.802 40.802 40.802 22.533 0 40.802-18.267 40.802-40.802 0 0 0 0 0 0 0 0 0 0 0 0 0-22.533-18.267-40.802-40.802-40.802-22.533 0-40.802 18.267-40.802 40.802s0 0 0 0zM631.801 657.119c0 0 0 0 0 0 0 22.533 18.267 40.802 40.802 40.802 22.533 0 40.802-18.267 40.802-40.802 0 0 0 0 0 0 0 0 0 0 0 0 0-22.533-18.267-40.802-40.802-40.802-22.533 0-40.802 18.267-40.802 40.802s0 0 0 0zM925.224 534.132c-0.058-5.561-0.193-11.161-0.47-16.82 0.172-2.986 0.347-5.987 0.527-9.022 0.491-8.229-0.877-17.151-3.689-26.527-17.975-139.408-103.836-293.221-303.443-333.031 2.464-8.199 3.806-16.821 3.806-25.727 0-54.14-48.636-98.029-108.626-98.029s-108.626 43.889-108.626 98.029c0 8.989 1.366 17.683 3.877 25.954-222.691 45.407-305.914 235.645-307.17 386.25-31.069 23.037-50.494 59.706-50.494 100.205 0 51.694 31.634 97.163 78.761 115.973 44.822 284.499 63.754 207.634 63.754 173.877 0-15.429-6.661-59.388-8.51-112.83 16.963 31.181 38.5 60.101 64.3 85.903 70.473 70.474 164.172 109.285 263.837 109.285s193.364-38.812 263.837-109.285c16.471-16.471 31.187-34.223 44.107-53.012-1.742 47.345-3.060 88.121-3.060 103.171-0.001 33.922 32.676-8.909 67.118-153.302 3.579-15.004 6.783-29.085 9.682-42.416 49.15-17.872 82.432-64.345 82.432-117.369 0-41.13-20.027-78.32-51.951-101.284zM68.138 635.415c0-30.625 12.901-58.717 34.162-78.569 0.285 2.407 0.624 4.641 1.035 6.658l-0.006 0.014c8.369 65.667 16.092 121.002 23.196 167.522-35.313-18.222-58.384-54.658-58.384-95.626zM822.313 810.489c-61.344 107.381-176.985 179.917-309.255 179.917-147.712 0-274.683-90.461-328.455-218.884 1.626-75.735 16.766-159.962 72.42-207.935 59.845-51.587 88.962-136.347 103.035-201.571 13.023 57.306 42.704 126.436 110.369 142.268 114.809 26.858 165.69 28.206 218.137 29.066 24.843 0.407 130.263-3.974 140.862 102.066 0.001 0.001-3.863 90.455-7.11 175.073zM899.077 732.298c14.324-69.85 19.424-117.422 22.53-162.444 1.315-3.685 2.284-8.39 2.897-14.193 22.029 19.905 35.451 48.511 35.451 79.754-0.001 41.927-24.161 79.114-60.878 96.881z" fill="#f11e6e" p-id="12587"></path></svg>