<?xml version="1.0" standalone="no"?><!DOCTYPE svg PUBLIC "-//W3C//DTD SVG 1.1//EN" "http://www.w3.org/Graphics/SVG/1.1/DTD/svg11.dtd"><svg t="1506878379897" class="icon" style="" viewBox="0 0 1024 1024" version="1.1" xmlns="http://www.w3.org/2000/svg" p-id="9951" xmlns:xlink="http://www.w3.org/1999/xlink" width="64" height="64"><defs><style type="text/css"></style></defs><path d="M635.7 300.7c-34-0.2-64.8 16.4-87.3 33.1-7.7 6.6-20.7 16.3-26.1 20.3 23.5 24.9 71.8 76 98.4 104.2 1.8 1.8 3.5 3.6 5 5.3 2.4 1.7 4.4 3.4 6 5.2 0.9 0.4 1.7 1 2.4 1.8 0.3 0.3 0.5 0.6 0.7 0.8 0.6 0.4 1.2 0.8 1.8 1.4 3.8 3.8 3.8 9.8 0 13.6-3.8 3.8-9.8 3.8-13.6 0-0.3-0.3-0.5-0.5-0.7-0.8-0.6-0.4-1.2-0.8-1.8-1.4-0.7-0.7-1.3-1.5-1.7-2.3-1.1-1-2.2-2-3.4-3.3-33.3-35.3-114.1-121.1-114.1-121.1l0.1-0.1c-19.1-19.1-63.4-56.7-114.6-56.4-52.9 0-113.9 25.5-113.9 129.8 0 128.5 238.6 287.4 238.6 287.4s7-4.5 18.6-12.6L482.4 658l-27.8-27.8c-0.7-0.4-1.4-0.9-2-1.5-3.8-3.8-3.8-9.8 0-13.6 3.8-3.8 9.8-3.8 13.6 0 0.4 0.4 0.7 0.8 1 1.3l0.2-0.2 12.6 12.6 56.1 56.1 9.6 9.6c7.4-5.4 15.8-11.7 24.7-18.7l-5.3-5.3-72.8-72.8c-0.4-0.3-0.7-0.6-1.1-0.9-3.8-3.8-3.8-9.8 0-13.6 3.8-3.8 9.8-3.8 13.6 0 0.3 0.3 0.6 0.7 0.9 1.1l72.8 72.8 6.9 6.9c7.4-6 15.1-12.5 22.9-19.3l-6.1-6.1-72.8-72.8c-0.4-0.3-0.7-0.6-1-0.9-3.8-3.8-3.8-9.8 0-13.6 3.8-3.8 9.8-3.8 13.6 0 0.3 0.3 0.6 0.7 0.9 1l72.8 72.8 6.9 6.9c8.4-7.7 16.9-15.7 25.3-24.1l-63.3-63.3-72.2-72.2c-0.7-0.4-1.4-0.9-2-1.5-3.8-3.8-3.8-9.8 0-13.6 3.8-3.8 9.8-3.8 13.6 0 0.4 0.4 0.7 0.8 1 1.3l0.2-0.2 69 69 66.9 66.9c48.2-50.9 89.3-109.9 89.3-163.2 0.2-104.9-61-130.4-114.7-130.4z" fill="#ef4616" p-id="9952"></path><path d="M511.3 63.3c-247.4 0-448 200.6-448 448s200.6 448 448 448 448-200.6 448-448-200.5-448-448-448zM671.1 608c-0.6 0.4-1.1 0.9-1.7 1.3-0.4 0.7-0.9 1.4-1.6 2.1C595.5 685.5 511 741.1 511 741.1S253.7 571.4 253.7 429.6c0-110.6 72.7-147.3 122.9-147.7 65.4-0.4 120.4 47.1 132.1 57.9v-0.1s0.2 0.2 0.6 0.7c0.3 0.2 0.5 0.5 0.8 0.7 6-5.6 16.7-13.6 28-21.4 24.5-17.3 63.3-38.4 107-38.2 50.4 0.3 123.9 37 123.9 148 0 59.5-45.3 123.8-97.9 178.5z" fill="#ef4616" p-id="9953"></path></svg>