<?xml version="1.0" standalone="no"?><!DOCTYPE svg PUBLIC "-//W3C//DTD SVG 1.1//EN" "http://www.w3.org/Graphics/SVG/1.1/DTD/svg11.dtd"><svg t="1506878636623" class="icon" style="" viewBox="0 0 1024 1024" version="1.1" xmlns="http://www.w3.org/2000/svg" p-id="11807" xmlns:xlink="http://www.w3.org/1999/xlink" width="64" height="64"><defs><style type="text/css"></style></defs><path d="M1024 128c0-70.4-57.6-128-128-128L128 0C57.6 0 0 57.6 0 128l0 768c0 70.4 57.6 128 128 128l768 0c70.4 0 128-57.6 128-128L1024 128zM352 787.2l-204.8 64 76.8-204.8L499.2 384l134.4 140.8L352 787.2zM768 390.4l-70.4 64L633.6 384l0 0 0 0L569.6 320l70.4-64c38.4-38.4 102.4-32 134.4 6.4C806.4 294.4 806.4 352 768 390.4z" p-id="11808" fill="#ee633e"></path></svg>