<?xml version="1.0" standalone="no"?><!DOCTYPE svg PUBLIC "-//W3C//DTD SVG 1.1//EN" "http://www.w3.org/Graphics/SVG/1.1/DTD/svg11.dtd"><svg t="1506878247686" class="icon" style="" viewBox="0 0 1322 1024" version="1.1" xmlns="http://www.w3.org/2000/svg" p-id="9106" xmlns:xlink="http://www.w3.org/1999/xlink" width="82.625" height="64"><defs><style type="text/css"></style></defs><path d="M432.984897 66.171081c83.043684-1.234904 138.821002 20.162033 174.211908 55.690149 11.549987 11.596801 20.026435 23.908716 25.903934 36.067278 3.297921 6.821837 4.915403 11.627472 5.315738 13.390237l-0.820041-7.319028v568.012403c0-2.732932 2.702261-9.067265 12.742921-13.514535 9.617725-4.258402 15.616293-2.322912 17.542099-0.698972l-21.312996 25.271147 26.635191-19.58413c-9.241604-12.57181-27.978251-28.686908-58.322997-43.723684-47.208859-23.393769-110.122795-37.123-190.664385-37.123-80.882197 0-140.85012 13.414451-182.946636 36.629038-28.21716 15.559794-44.280602 32.879126-51.149252 47.049047l29.750701 14.420132-24.822384-21.836014c2.385867-2.713561 9.390116-6.13578 21.711717-1.288175 11.937408 4.694251 14.659041 11.428918 14.65904 14.702625V163.999717l-4.368171 16.425034c1.628782-2.84593 5.515906-8.762171 11.637157-16.713986 10.492651-13.632375 23.198444-27.32932 38.056039-40.088384 42.911714-36.853419 94.380589-58.373039 155.249265-57.4513h0.991152z m0.009686-66.113388c-78.296162-1.184862-144.90674 26.665862-199.328086 73.403359-31.784662 27.297035-52.902333 54.729668-63.998715 74.115245l-4.368171 7.630578v577.110339c0 48.303323 47.191102 66.864016 79.393855 30.255963l2.966999-3.373791 1.959704-4.043707c1.013752-2.088845 7.570851-9.159277 23.579409-17.987632 31.610322-17.432329 80.677187-28.409256 151.016691-28.409256 70.676884 0 123.550159 11.535459 161.304333 30.246277 20.635009 10.226299 31.272943 19.374277 34.412667 23.645593l2.322911 3.160709 2.99767 2.526308c35.014784 29.531163 78.462431 10.289255 78.462431-36.328787V163.999717l-0.820041-7.317414c-4.988045-21.968383-19.51956-52.030635-48.855398-81.482699C605.651964 26.620243 532.513343-1.435492 432.001817 0.057693h0.992766z" p-id="9107" fill="#8d8d61"></path><path d="M0 332.805488v617.510273c0 47.436468 44.931146 66.192486 79.374484 34.361011l2.581192-2.669976c2.374568-2.749075 7.998629-8.453848 16.835055-16.147383 15.248243-13.280468 33.663653-26.657791 55.210716-39.200544 62.045467-36.112477 136.446435-57.822579 223.524139-57.822579 85.285882 0 151.250758 24.899868 201.184478 66.252213 17.280589 14.310362 31.324599 29.589276 42.341883 44.748736 6.353704 8.741185 10.137515 15.161074 11.570973 18.105473 7.988943 16.418578 27.774855 23.250101 44.190203 15.262771 16.420192-7.988943 23.251715-27.774855 15.262772-44.191817-10.899443-22.402617-33.749209-53.8386-71.193445-84.850034-61.533749-50.957156-142.306177-81.447186-243.358478-81.447187-99.260479 0-185.009653 25.022551-256.785843 66.797832-43.563873 25.356702-73.122478 51.094368-88.824327 69.274096l25.020937 21.611633-22.438131-24.27838c1.872535-1.732095 7.961501-4.001736 18.182958 0.267966 10.644391 4.442427 13.440279 10.991456 13.440278 13.927784V332.805488c0-18.258827-14.801095-33.059922-33.059922-33.059923S0 314.546661 0 332.805488zM899.851372 0.057693C799.343074-1.435492 726.202839 26.620243 677.813961 75.199604c-29.335838 29.452064-43.868967 59.514317-48.855398 81.482699l-0.820041 7.317414v568.012403c0 46.618042 43.447647 65.85995 78.462431 36.328786l2.994441-2.526307 2.322911-3.16071c3.139724-4.271316 13.777658-13.419294 34.412667-23.645592 37.755787-18.710818 90.629063-30.246277 161.305947-30.246278 70.339504 0 119.404755 10.976927 151.015077 28.409256 16.010171 8.828355 22.567271 15.898788 23.579409 17.987633l1.961318 4.043706 2.966999 3.373791c32.202753 36.608053 79.392241 18.04736 79.392241-30.255963V155.206875l-4.366557-7.630578c-11.097996-19.385576-32.215667-46.818209-63.998715-74.115245C1043.76696 26.723556 977.156382-1.127169 898.858606 0.057693h0.992766z m0.009685 66.113388c60.868676-0.921739 112.335937 20.597881 155.249266 57.4513 14.85598 12.759064 27.561773 26.456009 38.054424 40.088384 6.122865 7.951815 10.009989 13.868056 11.637157 16.713986l-4.366557-16.425034v568.317497c0-3.273707 2.721632-10.008375 14.657427-14.702626 12.321601-4.847605 19.327463-1.425386 21.71333 1.288175l-24.822383 21.836014 29.750701-14.420131c-6.870265-14.168307-22.933707-31.489253-51.149253-47.049048-42.096516-23.216201-102.067667-36.629038-182.946636-36.629038-80.543204 0-143.45714 13.72923-190.664384 37.123-30.346361 15.036776-49.083008 31.151874-58.324612 43.723684l26.635191 19.58413-21.312995-25.271147c1.925805-1.625554 7.925987-3.55943 17.542098 0.698972 10.042274 4.44727 12.744535 10.781603 12.744535 13.514535V163.999717l-0.820041 7.319028c0.400335-1.762765 2.017818-6.5684 5.315739-13.390237 5.877499-12.158561 14.355561-24.470477 25.903934-36.067278 35.390905-35.528117 91.168224-56.925054 174.210293-55.690149h0.992766z" p-id="9108" fill="#8d8d61"></path><path d="M1256.277044 332.805488v617.510273c0-2.936328 2.795888-9.485357 13.440279-13.927783 10.221456-4.269702 16.310423-2.000061 18.182957-0.267967l-22.438131 24.278381 25.020938-21.611633c-15.705077-18.179729-45.262068-43.917395-88.827556-69.274097-71.774576-41.77528-157.522135-66.797831-256.782615-66.797831-101.413894 0-182.231521 32.139797-243.474704 85.765316-37.137528 32.519147-59.638615 65.391816-70.281391 88.740386-7.572466 16.613902-0.242138 36.220632 16.371764 43.793097 16.613902 7.570851 36.222246 0.242138 43.794711-16.373378 1.452829-3.189766 5.23664-10.021289 11.574202-19.277422 10.943028-15.987572 24.907939-32.083299 42.096516-47.136217 49.505942-43.347563 114.992999-69.390323 199.918902-69.390323 87.077704 0 161.478672 21.710102 223.52414 57.822579 21.547063 12.544368 39.962472 25.921691 55.209101 39.200544 8.841269 7.693535 14.462102 13.398308 16.836669 16.147383l2.582807 2.669976c34.441724 31.831475 79.37287 13.075458 79.37287-34.361011V332.805488c0-18.258827-14.799481-33.059922-33.058308-33.059923-18.26367 0-33.063151 14.801095-33.063151 33.059923z" p-id="9109" fill="#8d8d61"></path><path d="M1306.336675 41.615049c-14.013339-13.246568-13.822857-13.039944-30.5207-28.795063-16.701072-15.753505-52.597239-19.387191-74.865873 2.879829-22.26702 22.268634-363.383107 365.10713-363.383107 365.10713l-67.377348 154.915115c-3.591715 8.253681 3.456118 16.124783 11.517702 12.668666 8.061585-3.454504 161.822508-67.377348 161.822508-67.377349L1306.336675 118.206559c27.739341-27.739341 14.013339-63.346556 0-76.59151zM811.914885 505.499996l40.753456-93.939898 55.207488 53.473779-95.960944 40.466119z m125.44045-57.407715l-64.337708-62.489387L1123.51918 136.077965l62.654041 60.670123-248.817886 251.344193z m273.599913-274.778318l-64.116555-62.37639L1175.176922 82.657457l64.103642 62.473245-28.325316 28.183261z m72.7512-71.209588a20807.056257 20807.056257 0 0 0-24.086284 24.139555l-66.452381-63.919616 24.867583-24.315509c10.426467-10.194014 31.084075-9.443386 41.584798 0.590817 10.499108 10.034203 11.231979 10.597578 22.609242 21.777901 13.575876 13.338581 11.509631 31.692649 1.477042 41.726852z" p-id="9110" fill="#8d8d61"></path></svg>